<svg id="Capa_1" enable-background="new 0 0 512.018 512.018" height="512" viewBox="0 0 512.018 512.018" width="512" xmlns="http://www.w3.org/2000/svg"><g><g><g><path d="m193.562 285.137c-4.143 0-7.5-3.357-7.5-7.5v-12c0-4.143 3.357-7.5 7.5-7.5s7.5 3.357 7.5 7.5v12c0 4.143-3.358 7.5-7.5 7.5z"/></g><g><path d="m318.459 285.137c-4.143 0-7.5-3.357-7.5-7.5v-12c0-4.143 3.357-7.5 7.5-7.5s7.5 3.357 7.5 7.5v12c0 4.143-3.357 7.5-7.5 7.5z"/></g><g><path d="m256.011 292.28c-8.479 0-16.54-3.671-22.118-10.073-2.722-3.122-2.396-7.86.728-10.581 3.122-2.721 7.86-2.396 10.581.728 2.729 3.131 6.669 4.927 10.81 4.927s8.081-1.796 10.81-4.927c2.721-3.124 7.458-3.448 10.581-.728s3.449 7.459.728 10.581c-5.58 6.402-13.642 10.073-22.12 10.073z"/></g></g><path d="m402.162 294.704c23.557-.548 42.557-19.868 42.557-43.555 0-23.697-19.016-43.024-42.587-43.556-5.683-19.062-15.056-36.981-27.709-52.552-2.612-3.214-7.337-3.705-10.55-1.091-3.215 2.611-3.703 7.335-1.091 10.55 19.815 24.387 30.729 55.158 30.729 86.646 0 75.817-61.683 137.5-137.5 137.5s-137.5-61.683-137.5-137.5 61.683-137.5 137.5-137.5c31.477 0 62.239 10.906 86.621 30.709 3.217 2.613 7.94 2.123 10.55-1.093 2.612-3.216 2.122-7.938-1.093-10.55-24.723-20.079-55.356-31.907-87.098-33.793-16.577-14.483-22.328-38.404-13.945-58.923 4.057-9.929 11.737-17.684 21.626-21.835 9.888-4.152 20.801-4.206 30.73-.147 7.572 3.093 13.486 8.95 16.652 16.492 3.167 7.541 3.207 15.865.112 23.437-2.322 5.687-6.722 10.128-12.385 12.506-5.666 2.379-11.916 2.407-17.602.085-4.179-1.708-7.442-4.939-9.189-9.102-1.747-4.161-1.77-8.755-.062-12.934 1.214-2.972 3.513-5.292 6.472-6.535 3.819-1.603 5.616-5.999 4.013-9.818s-6.002-5.616-9.817-4.012c-6.655 2.793-11.824 8.012-14.553 14.692-6.653 16.282 1.181 34.94 17.463 41.593 9.394 3.839 19.722 3.789 29.082-.14 9.358-3.929 16.626-11.267 20.464-20.662 4.609-11.281 4.55-23.682-.167-34.918-4.718-11.235-13.529-19.962-24.81-24.57-13.639-5.574-28.63-5.5-42.211.202-13.584 5.703-24.133 16.354-29.705 29.992-8.853 21.668-5.454 46.278 7.823 64.725-64.099 4.603-117.348 48.997-135.125 108.546-23.559.547-42.559 19.868-42.559 43.555 0 23.688 19.001 43.009 42.561 43.555 12.936 43.326 44.648 78.625 85.658 96.417-10.725 5.757-20.693 13.041-29.386 21.549-2.96 2.897-3.011 7.646-.114 10.606 1.47 1.501 3.414 2.254 5.361 2.254 1.892 0 3.786-.712 5.245-2.14 11.176-10.94 24.726-19.594 39.26-25.113 12.792 3.492 26.243 5.368 40.127 5.368 13.876 0 27.32-1.874 40.105-5.362 41.664 15.781 70.285 54.668 73.221 98.734h-226.652c1.207-18.263 6.812-35.967 16.391-51.608 2.163-3.532 1.053-8.15-2.479-10.313-3.532-2.161-8.149-1.053-10.313 2.479-12.329 20.134-18.846 43.282-18.846 66.942 0 4.143 3.357 7.5 7.5 7.5h242.15c4.143 0 7.5-3.357 7.5-7.5 0-47.745-26.728-91.266-68.073-113.401 41.004-17.791 72.713-53.088 85.648-96.411zm27.557-43.555c0 14.14-10.324 25.908-23.829 28.178 1.714-9.137 2.621-18.555 2.621-28.181 0-9.495-.902-18.929-2.647-28.18 13.518 2.259 23.855 14.033 23.855 28.183zm-347.42 0c0-14.141 10.325-25.91 23.832-28.179-1.714 9.135-2.62 18.551-2.62 28.176 0 9.627.907 19.045 2.621 28.182-13.507-2.269-23.833-14.038-23.833-28.179z"/></g></svg>