<?xml version="1.0" encoding="iso-8859-1"?>
<!-- Generator: Adobe Illustrator 21.0.0, SVG Export Plug-In . SVG Version: 6.00 Build 0)  -->
<svg version="1.1" id="Capa_1" xmlns="http://www.w3.org/2000/svg" xmlns:xlink="http://www.w3.org/1999/xlink" x="0px" y="0px"
	 viewBox="0 0 511.998 511.998" style="enable-background:new 0 0 511.998 511.998;" xml:space="preserve">
<g>
	<g>
		<path d="M462.764,205.249c0-11.078-4.402-21.645-12.153-29.454c-4.049-40.133-20.183-77.475-46.778-108.155
			c-2.712-3.13-7.448-3.469-10.579-0.755c-3.13,2.713-3.468,7.449-0.755,10.579c22.866,26.381,37.362,58.089,42.266,92.238
			c-14.979-4.086-44.109-14.92-64.557-40.699c-1.586-1.999-4.074-3.063-6.619-2.803c-2.54,0.253-4.776,1.779-5.937,4.053
			l-16.122,31.581c-3.16,6.189-9.44,10.034-16.39,10.034H186.856c-6.949,0-13.229-3.845-16.39-10.034l-16.122-31.581
			c-1.16-2.273-3.396-3.8-5.937-4.053c-2.542-0.26-5.033,0.804-6.619,2.803c-20.355,25.665-49.537,36.55-64.545,40.673
			C89.956,82.143,166.543,15,255.998,15c43.025,0,84.729,15.446,117.43,43.494c3.144,2.697,7.879,2.336,10.575-0.81
			c2.697-3.145,2.335-7.879-0.81-10.575C347.775,16.73,302.603,0,255.998,0c-49.214,0-96.278,18.413-132.523,51.848
			c-35.315,32.577-57.282,76.496-62.082,123.94c-7.755,7.81-12.159,18.38-12.159,29.461c0,18.535,11.889,34.296,28.809,39.762
			l-3.755,99.087c-0.427,11.258,3.642,21.927,11.455,30.043c6.769,7.03,15.562,11.318,25.116,12.34v37.957
			c-13.214,23.986-20.534,51.378-20.534,80.058c0,4.143,3.357,7.5,7.5,7.5h129.082c0.012,0,0.024,0.002,0.036,0.002
			c0.008,0,0.015-0.002,0.023-0.002h56.89c0.008,0,0.015,0.002,0.023,0.002c0.012,0,0.024-0.002,0.036-0.002h130.257
			c4.143,0,7.5-3.357,7.5-7.5c0-28.687-7.32-56.081-20.534-80.066v-37.949c9.554-1.022,18.347-5.311,25.116-12.34
			c7.813-8.116,11.882-18.785,11.455-30.043l-3.755-99.093C450.861,239.524,462.764,223.732,462.764,205.249z M64.233,205.249
			c0-7.121,2.836-13.913,7.83-18.925c0.954-0.18,2.166-0.426,3.602-0.749c-0.184,3.346-0.282,6.699-0.282,10.041
			c0,11.396,1.073,22.544,3.101,33.359C69.931,224.474,64.233,215.527,64.233,205.249z M91.004,181.178
			c15.585-5.384,37.018-15.577,55.011-34.253l11.093,21.729c5.736,11.235,17.136,18.214,29.749,18.214H325.14
			c12.613,0,24.013-6.979,29.749-18.214l11.093-21.729c17.993,18.676,39.426,28.869,55.011,34.253
			c0.412,4.791,0.621,9.629,0.621,14.438c0,91.32-74.295,165.614-165.615,165.614S90.383,286.936,90.383,195.615
			C90.383,190.806,90.591,185.968,91.004,181.178z M370.785,349.46c8.465,0,15.352,6.887,15.352,15.352v37.012
			c-13.914-17.633-31.48-32.498-51.923-43.423c5.603-2.703,11.04-5.695,16.304-8.941H370.785z M241.419,395.688l11.003-11.003
			c0.955-0.956,2.226-1.481,3.576-1.481c1.35,0,2.621,0.525,3.576,1.481l11.003,11.003c1.973,1.972,1.973,5.181,0,7.152
			l-11.003,11.003c-0.955,0.956-2.226,1.481-3.576,1.481c-1.35,0-2.621-0.525-3.576-1.481l-11.003-11.003
			C239.446,400.869,239.446,397.66,241.419,395.688z M230.812,385.081c-2.202,2.202-3.76,4.798-4.722,7.559
			c-8.147-1.954-14.473-4.363-18.618-6.202V369.6c10.601,2.961,21.593,4.971,32.878,5.944L230.812,385.081z M125.859,379.205
			v-14.394c0-8.465,6.887-15.352,15.352-15.352h20.267c5.264,3.246,10.701,6.238,16.304,8.941
			c-20.443,10.925-38.008,25.794-51.923,43.429v-22.585c0-0.007,0.001-0.013,0.001-0.019
			C125.86,379.219,125.859,379.212,125.859,379.205z M96.549,363.736c-4.96-5.151-7.543-11.924-7.271-19.07l2.778-73.309
			c11.362,24.495,28.05,46.034,48.577,63.118c-16.469,0.31-29.773,13.795-29.773,30.337v6.528
			C105.429,370.41,100.457,367.795,96.549,363.736z M148.471,496.996h-42.962c1.845-37.554,17.491-72.238,42.962-98.14V496.996z
			 M192.471,391.051c-0.001,0.114-0.004,0.229,0,0.343v105.603h-29V385.523c8.855-6.874,18.552-12.834,29-17.688V391.051z
			 M220.919,496.996h-13.448v-94.355c5.229,1.959,11.808,3.986,19.591,5.576c0.94,1.887,2.179,3.661,3.75,5.231l7.094,7.093
			L220.919,496.996z M236.285,496.997v-0.001l14.944-67.262c1.545,0.376,3.139,0.592,4.77,0.592c1.239,0,2.458-0.124,3.651-0.342
			l14.887,67.013H236.285z M304.525,496.996h-14.624l-16.771-75.494l8.054-8.054c1.57-1.57,2.81-3.344,3.749-5.23
			c7.786-1.591,14.367-3.62,19.592-5.578V496.996z M304.525,386.437c-4.131,1.832-10.461,4.244-18.619,6.201
			c-0.962-2.76-2.521-5.356-4.722-7.558l-9.537-9.537c11.285-0.973,22.277-2.983,32.878-5.944V386.437z M348.525,496.996h-29
			v-129.16c10.447,4.854,20.145,10.812,29,17.684V496.996z M406.488,496.996h-42.962v-98.144
			C388.999,424.751,404.645,459.433,406.488,496.996z M415.447,363.736c-3.908,4.059-8.88,6.673-14.311,7.603v-6.528
			c0-16.542-13.304-30.026-29.773-30.337c20.527-17.083,37.215-38.622,48.577-63.117l2.778,73.309
			C422.991,351.813,420.408,358.585,415.447,363.736z M433.514,228.966c2.027-10.813,3.099-21.958,3.099-33.351
			c0-3.341-0.098-6.695-0.282-10.041c1.435,0.323,2.647,0.569,3.601,0.749c4.994,5.012,7.831,11.805,7.831,18.926
			C447.764,215.497,442.061,224.456,433.514,228.966z"/>
	</g>
</g>
<g>
	<g>
		<path d="M276.635,230.405c-3.591-2.066-8.176-0.826-10.239,2.765c-2.136,3.715-6.12,6.022-10.398,6.022
			c-4.278,0-8.263-2.309-10.398-6.023c-2.063-3.591-6.649-4.83-10.239-2.765c-3.592,2.063-4.829,6.648-2.765,10.239
			c4.803,8.358,13.77,13.549,23.402,13.549c9.632,0,18.6-5.191,23.402-13.548C281.465,237.053,280.228,232.468,276.635,230.405z"/>
	</g>
</g>
<g>
	<g>
		<path d="M320.228,198.215c-4.143,0-7.5,3.357-7.5,7.5v11.452c0,4.143,3.357,7.5,7.5,7.5s7.5-3.357,7.5-7.5v-11.452
			C327.728,201.572,324.371,198.215,320.228,198.215z"/>
	</g>
</g>
<g>
	<g>
		<path d="M191.769,198.215c-4.143,0-7.5,3.357-7.5,7.5v11.452c0,4.143,3.357,7.5,7.5,7.5s7.5-3.357,7.5-7.5v-11.452
			C199.269,201.572,195.912,198.215,191.769,198.215z"/>
	</g>
</g>
<g>
	<g>
		<path d="M325.953,231.314h-11.451c-4.143,0-7.5,3.357-7.5,7.5s3.357,7.5,7.5,7.5h11.451c4.143,0,7.5-3.357,7.5-7.5
			S330.096,231.314,325.953,231.314z"/>
	</g>
</g>
<g>
	<g>
		<path d="M197.494,231.314h-11.451c-4.143,0-7.5,3.357-7.5,7.5s3.357,7.5,7.5,7.5h11.451c4.143,0,7.5-3.357,7.5-7.5
			S201.637,231.314,197.494,231.314z"/>
	</g>
</g>
<g>
</g>
<g>
</g>
<g>
</g>
<g>
</g>
<g>
</g>
<g>
</g>
<g>
</g>
<g>
</g>
<g>
</g>
<g>
</g>
<g>
</g>
<g>
</g>
<g>
</g>
<g>
</g>
<g>
</g>
</svg>
