<?xml version="1.0" encoding="iso-8859-1"?>
<!-- Generator: Adobe Illustrator 21.0.0, SVG Export Plug-In . SVG Version: 6.00 Build 0)  -->
<svg version="1.1" id="Capa_1" xmlns="http://www.w3.org/2000/svg" xmlns:xlink="http://www.w3.org/1999/xlink" x="0px" y="0px"
	 viewBox="0 0 511.999 511.999" style="enable-background:new 0 0 511.999 511.999;" xml:space="preserve">
<g>
	<g>
		<path d="M450.71,176.031c-4.024-40.212-20.171-77.627-46.814-108.363c-2.714-3.13-7.448-3.467-10.579-0.754
			c-3.13,2.713-3.468,7.45-0.755,10.58c23.332,26.917,37.952,59.373,42.566,94.314c-25.604-1.416-106.525-11.315-173.825-78.614
			c-2.93-2.929-7.678-2.929-10.607,0c-42.005,42.005-89.163,61.197-121.326,69.899c-23.26,6.293-42.272,8.172-52.494,8.723
			C88.682,83.228,165.779,15,256,15c42.356,0,83.566,15.018,116.038,42.287c3.173,2.666,7.903,2.253,10.566-0.92
			c2.664-3.172,2.252-7.903-0.92-10.566C346.516,16.266,301.88,0,256,0c-49.26,0-96.362,18.438-132.629,51.916
			c-35.345,32.627-57.309,76.607-62.075,124.11c-7.662,7.793-12.01,18.291-12.01,29.303c0,20.026,14.103,37.015,33.365,40.951
			c5.109,17.479,12.795,33.865,22.618,48.724c-12.396,29.533-13.166,56.202-2.19,77.233c6.001,11.5,13.352,21.828,21.887,30.769
			c-22.019,28.43-34.638,63.879-34.638,101.493c0,4.142,3.357,7.5,7.5,7.5h316.346c4.143,0,7.5-3.358,7.5-7.5
			c0-37.627-12.617-73.074-34.635-101.5c8.533-8.94,15.883-19.262,21.884-30.762c13.708-26.267,6.707-56.022-2.189-77.235
			c9.822-14.858,17.507-31.243,22.615-48.72c19.269-3.932,33.365-20.907,33.365-40.954
			C462.714,194.331,458.367,183.824,450.71,176.031z M64.286,205.329c0-6.831,2.604-13.358,7.223-18.302
			c1.11-0.016,2.503-0.053,4.135-0.12c-0.141,2.93-0.215,5.868-0.215,8.791c0,11.385,1.071,22.524,3.096,33.33
			C69.991,224.505,64.286,215.532,64.286,205.329z M116.377,365.298c-9.401-18.013-6.328-38.942-0.546-55.904
			c16.709,20.561,37.834,37.396,61.927,49.027c-16.29,8.715-30.756,19.94-43.003,33.075
			C127.647,383.837,121.47,375.059,116.377,365.298z M406.488,497H105.512c2.708-54.986,35.061-103.918,84.543-127.992
			c0.591,26.078,6.969,50.557,18.134,69.296c12.457,20.907,29.437,32.421,47.812,32.421c18.375,0,35.354-11.514,47.812-32.421
			c11.165-18.74,17.543-43.219,18.134-69.297C371.434,393.082,403.783,441.998,406.488,497z M256,409.051
			c23.634,0,44.203-16.802,49.196-39.596c0.588-0.167,1.17-0.346,1.755-0.518c-1.197,47.435-24.04,86.788-50.951,86.788
			s-49.755-39.353-50.951-86.788c0.585,0.172,1.167,0.352,1.755,0.518C211.794,392.266,232.322,409.051,256,409.051z
			 M223.849,373.399c10.436,1.883,21.18,2.869,32.151,2.869c10.969,0,21.713-0.986,32.148-2.869
			c-5.657,12.245-18.136,20.651-32.148,20.651C241.96,394.051,229.499,385.65,223.849,373.399z M395.622,365.298
			c-5.094,9.761-11.27,18.534-18.376,26.191c-12.246-13.132-26.712-24.355-43.003-33.069c24.093-11.632,45.218-28.468,61.927-49.029
			C401.98,326.423,405.01,347.312,395.622,365.298z M256,361.268c-91.296,0-165.57-74.274-165.57-165.57
			c0-3.317,0.11-6.652,0.306-9.972c10.982-1.219,25.404-3.551,41.984-8.001c32.736-8.788,80.136-27.821,123.28-68.759
			c43.145,40.938,90.544,59.972,123.28,68.759c16.579,4.451,31.002,6.783,41.984,8.003c0.196,3.315,0.306,6.649,0.306,9.97
			C421.57,286.994,347.296,361.268,256,361.268z M433.474,229.03c2.025-10.807,3.096-21.946,3.096-33.332
			c0-2.925-0.074-5.862-0.215-8.79c1.636,0.068,3.02,0.103,4.131,0.12c4.619,4.945,7.227,11.477,7.227,18.301
			C447.714,215.542,442.01,224.511,433.474,229.03z"/>
	</g>
</g>
<g>
	<g>
		<path d="M276.638,230.409c-3.591-2.064-8.176-0.826-10.239,2.765c-2.136,3.715-6.12,6.023-10.398,6.023s-8.263-2.308-10.398-6.023
			c-2.063-3.59-6.649-4.829-10.239-2.765c-3.592,2.064-4.829,6.649-2.765,10.24c4.803,8.356,13.771,13.548,23.402,13.548
			s18.6-5.191,23.402-13.547C281.467,237.058,280.229,232.473,276.638,230.409z"/>
	</g>
</g>
<g>
	<g>
		<path d="M320.229,198.218c-4.143,0-7.5,3.358-7.5,7.5v11.452c0,4.143,3.358,7.5,7.5,7.5c4.143,0,7.5-3.358,7.5-7.5v-11.452
			C327.729,201.576,324.372,198.218,320.229,198.218z"/>
	</g>
</g>
<g>
	<g>
		<path d="M191.771,198.218c-4.143,0-7.5,3.358-7.5,7.5v11.452c0,4.143,3.357,7.5,7.5,7.5s7.5-3.358,7.5-7.5v-11.452
			C199.271,201.576,195.914,198.218,191.771,198.218z"/>
	</g>
</g>
<g>
	<g>
		<path d="M325.955,231.318h-11.451c-4.143,0-7.5,3.358-7.5,7.5c0,4.142,3.357,7.5,7.5,7.5h11.451c4.143,0,7.5-3.358,7.5-7.5
			C333.455,234.676,330.098,231.318,325.955,231.318z"/>
	</g>
</g>
<g>
	<g>
		<path d="M197.496,231.318h-11.451c-4.143,0-7.5,3.358-7.5,7.5c0,4.142,3.357,7.5,7.5,7.5h11.451c4.143,0,7.5-3.358,7.5-7.5
			C204.996,234.676,201.639,231.318,197.496,231.318z"/>
	</g>
</g>
<g>
</g>
<g>
</g>
<g>
</g>
<g>
</g>
<g>
</g>
<g>
</g>
<g>
</g>
<g>
</g>
<g>
</g>
<g>
</g>
<g>
</g>
<g>
</g>
<g>
</g>
<g>
</g>
<g>
</g>
</svg>
